# Made in Blockbench 4.6.5
mtllib Crystal.mtl

o cube
v 0 0.625 0
v 0 0.625 -0.375
v 0 0 0
v 0 0 -0.375
v -0.375 0.625 0
v -0.375 0.625 -0.375
v -0.3125 0 0
v -0.375 0 -0.375
v -0.1875 0.625 -0.0625
v -0.1875 0.625 -0.3125
v -0.1875 0 -0.3125
v -0.1875 0 -0.0625
v -0.1875 0.875 -0.1875
v -0.0625 0.75 -0.1875
v -0.0625 0 -0.1875
v -0.1875 0 -0.1875
v -0.25 0 -0.1875
v -0.3125 0.75 -0.1875
v -0.3125 0.1875 -0.1875
v -0.375 0.125 0
v -0.1875 0.125 -0.0625
v 0 0.125 0
v -0.0625 0.1875 -0.1875
v 0 0.125 -0.375
v -0.1875 0.125 -0.3125
v -0.375 0.125 -0.375
vt 0.348821875 0.625
vt 0.348821875 0.71875
vt 0.25 0.6875
vt 0.25 0.625
vt 0.23810902649084997 0.6186418197867511
vt 0.25 0.6874999869177845
vt 0.15117808363010965 0.71875
vt 0.14015279665194333 0.6213768455316786
vt 0.7271605782359942 0.3726342625947825
vt 0.8411262790147942 0.3464898136608404
vt 0.90625 0.40625
vt 0.7862848740453606 0.40625
vt 0.65625 0.25
vt 0.65625 0.1875
vt 0.71875 0.1875
vt 0.75 0.28125
vt 0.098821875 0.28125
vt 0.098821875 0.34375
vt 0 0.34375
vt 0 0.28125
vt 0.625 0.6875
vt 0.625 0.75
vt 0.5261781249999999 0.75
vt 0.5261781249999999 0.6875
vt 0.125 0.14149532306014767
vt 0.125 0.28125
vt 0.06820480908015068 0.22534781883082422
vt 0.0625 0.12752176342507027
vt 0.5988218750000001 0.375
vt 0.5988218750000001 0.4375
vt 0.5 0.4375
vt 0.5 0.375
vt 0.8125 0.17120329456828798
vt 0.8125 0.07238211768802616
vt 0.8421463530640786 0.0625
vt 0.8619105884401309 0.12179270612815707
vt 0.75 0.6875
vt 0.75 0.75
vt 0.6511781249999999 0.75
vt 0.680825 0.6875
vt 0.0625 0.14149532306014767
vt 0.0625 0.28125
vt 0.0057054340592348485 0.22534719385174018
vt 0 0.1275180765795383
vt 0.5 0.625
vt 0.5 0.6875
vt 0.401178125 0.71875
vt 0.401178125 0.625
vt 0.84375 0.90625
vt 0.8125 1
vt 0.75 1
vt 0.75 0.9375
vt 0.7967547150941728 0.28125
vt 0.8487578584902881 0.3159187622640768
vt 0.8314234773582496 0.3419203339621345
vt 0.71875 0.3419203339621345
vt 0.11096202708006317 0.6205777298164441
vt 0.09967990942274788 0.7187498530697236
vt 0.0008584990603607845 0.6875
vt 0 0.6277186639860453
vt 0.7271586448945182 0.435134056994657
vt 0.8411237535955312 0.4089870272813454
vt 0.90625 0.46875
vt 0.7862864185715488 0.46875
vt 0.15117808363010965 1
vt 0.15117808363010965 0.71875
vt 0.24999995863010965 0.6875
vt 0.24999995863010965 0.9375
vt 0.6511781249999999 1
vt 0.6511781249999999 0.75
vt 0.75 0.75
vt 0.75 1
vt 0 0.59375
vt 0 0.34375
vt 0.098821875 0.34375
vt 0.098821875 0.59375
vt 0.25 0.9375
vt 0.25 0.6875
vt 0.348821875 0.71875
vt 0.348821875 1
vt 0.401178125 1
vt 0.401178125 0.71875
vt 0.5 0.6875
vt 0.5 0.9375
vt 0.5261781249999999 1
vt 0.5261781249999999 0.75
vt 0.625 0.75
vt 0.625 1
vt 0.5 0.6875
vt 0.5 0.4375
vt 0.5988218750000001 0.4375
vt 0.5988218750000001 0.6875
vt 0.0008584990603607845 0.9375
vt 0.0008584990603607845 0.6875
vt 0.09968037406036079 0.71875
vt 0.09968037406036079 1
vn 0.948683298050514 0 -0.316227766016838
vn -0.8164965809277263 -0.40824829046386313 -0.40824829046386313
vn 0.6882472016116853 0.6882472016116853 0.2294157338705618
vn 0 -1 0
vn -0.316227766016838 0 0.948683298050514
vn -0.316227766016838 0 -0.948683298050514
vn -0.4082482904638631 0.4082482904638631 0.8164965809277261
vn 0.316227766016838 0 -0.948683298050514
vn 0 -1 0
vn 0.316227766016838 0 0.948683298050514
vn 0.4082482904638631 0.4082482904638631 -0.8164965809277261
vn 0.948683298050514 0 0.316227766016838
vn 0 -1 0
vn 0 -1 0
vn -0.8741572761215379 -0.2913857587071793 0.38851434494290576
vn -0.6882472016116853 0.6882472016116853 -0.2294157338705618
vn -0.948683298050514 0 -0.316227766016838
vn 0.316227766016838 0 0.948683298050514
vn -0.316227766016838 0 0.948683298050514
vn 0.948683298050514 0 -0.316227766016838
vn 0.948683298050514 0 0.316227766016838
vn -0.316227766016838 0 -0.948683298050514
vn 0.316227766016838 0 -0.948683298050514
vn -0.948683298050514 0 0.316227766016838
usemtl m_3e31ac17-11c3-b2f0-7a61-5d41558c0022
f 15/1/1 23/2/1 22/3/1 3/4/1
f 7/5/2 20/6/2 19/7/2 17/8/2
f 1/9/3 14/10/3 13/11/3 9/12/3
f 12/13/4 16/14/4 15/15/4 3/16/4
f 3/17/5 22/18/5 21/19/5 12/20/5
f 11/21/6 25/22/6 24/23/6 4/24/6
f 9/25/7 13/26/7 18/27/7 5/28/7
f 8/29/8 26/30/8 25/31/8 11/32/8
f 7/33/9 17/34/9 16/35/9 12/36/9
f 12/37/10 21/38/10 20/39/10 7/40/10
f 10/41/11 13/42/11 14/43/11 2/44/11
f 4/45/12 24/46/12 23/47/12 15/48/12
f 4/49/13 15/50/13 16/51/13 11/52/13
f 11/53/14 16/54/14 17/55/14 8/56/14
f 17/57/15 19/58/15 26/59/15 8/60/15
f 6/61/16 18/62/16 13/63/16 10/64/16
f 18/65/17 19/66/17 20/67/17 5/68/17
f 5/69/18 20/70/18 21/71/18 9/72/18
f 9/73/19 21/74/19 22/75/19 1/76/19
f 1/77/20 22/78/20 23/79/20 14/80/20
f 14/81/21 23/82/21 24/83/21 2/84/21
f 2/85/22 24/86/22 25/87/22 10/88/22
f 10/89/23 25/90/23 26/91/23 6/92/23
f 6/93/24 26/94/24 19/95/24 18/96/24
o cube
v 0.1649102190125121 0.31678958327793627 -0.0625
v 0.1649102190125121 0.31678958327793627 -0.3125
v 0 0 -0.0625
v 0 0 -0.3125
v -0.05684248928204333 0.43222673658669475 -0.0625
v -0.05684248928204333 0.43222673658669475 -0.3125
v -0.22175270829455543 0.11543715330875848 -0.0625
v -0.22175270829455543 0.11543715330875848 -0.3125
v 0.054033864865234385 0.3745081599323155 -0.10416666666666667
v 0.054033864865234385 0.3745081599323155 -0.2708333333333333
v -0.11087635414727771 0.05771857665437924 -0.2708333333333333
v -0.11087635414727771 0.05771857665437924 -0.10416666666666667
v 0.11999795247023924 0.5012239932434901 -0.1875
v 0.1609334780992553 0.3993870254849834 -0.1875
v -0.03695878471575925 0.019239525551459753 -0.1875
v -0.11087635414727771 0.05771857665437924 -0.1875
v -0.18479392357879618 0.09619762775729872 -0.1875
v 0.013098339236218365 0.4763451276908224 -0.1875
vt 0.125 0.375
vt 0.1875 0.375
vt 0.1875 0.59375
vt 0.125 0.5580375
vt 0.1875 0.33928749999999996
vt 0.125 0.375
vt 0.125 0.15625
vt 0.1875 0.15625
vt 0.8272695694615021 0.5036101479457894
vt 0.901007664003522 0.4902607860099739
vt 0.9375 0.53125
vt 0.8675897963651541 0.53125
vt 0.84375 0.916665625
vt 0.84375 0.875
vt 0.885415625 0.875
vt 0.90625 0.9375
vt 0.375 0.34375
vt 0.3125 0.34375
vt 0.3125 0.15625
vt 0.375 0.15625
vt 0.4375 0.15625
vt 0.5 0.15625
vt 0.5 0.34375
vt 0.4375 0.34375
vt 0.75 0.10480743767858414
vt 0.75 0.1875
vt 0.692355019634189 0.15665316024631892
vt 0.6875 0.09430929272468724
vt 0.71875 0.46875
vt 0.65625 0.46875
vt 0.65625 0.28125
vt 0.71875 0.28125
vt 0.125 0.15625
vt 0.14583437500000002 0.09375
vt 0.1875 0.09375
vt 0.1875 0.13541562500000004
vt 0.375 0.15625
vt 0.4375 0.15625
vt 0.4375 0.34375
vt 0.375 0.34375
vt 0.875 0.19855743767858414
vt 0.875 0.28125
vt 0.8173543154303254 0.2504001156245167
vt 0.8125 0.18805929272468724
vt 0.25 0.30803749999999996
vt 0.1875 0.34375
vt 0.1875 0.125
vt 0.25 0.125
vt 0.90625 0.8125
vt 0.885415625 0.875
vt 0.84375 0.875
vt 0.84375 0.833334375
vt 0.90625 0.770834375
vt 0.90625 0.8125
vt 0.864584375 0.8125
vt 0.84375 0.75
vt 0.25 0.125
vt 0.3125 0.125
vt 0.3125 0.34375
vt 0.25 0.30803749999999996
vt 0.8585221469867149 0.9723619148608348
vt 0.9322602415287347 0.9590125529250192
vt 0.96875 1
vt 0.8988397963651541 1
vn 0.8414923626260495 -0.43805319727406317 -0.3162277660168381
vn -0.8414923626260495 0.43805319727406317 -0.3162277660168381
vn 0.9067545474144627 0.3644891912231055 0.21199957600127242
vn -0.4617486132350339 -0.8870108331782217 0
vn -0.2804974542086832 0.14601773242468774 0.948683298050514
vn -0.2804974542086833 0.14601773242468774 -0.9486832980505138
vn -0.1380995037695637 0.593386523574567 0.7929823205461081
vn 0.2804974542086833 -0.14601773242468774 -0.9486832980505138
vn -0.4617486132350339 -0.8870108331782217 0
vn 0.2804974542086832 -0.14601773242468774 0.948683298050514
vn 0.5652844050736388 0.2272280367425027 -0.7929823205461081
vn 0.8414923626260495 -0.43805319727406317 0.3162277660168381
vn -0.4617486132350339 -0.8870108331782217 0
vn -0.4617486132350339 -0.8870108331782217 0
vn -0.8414923626260495 0.43805319727406317 0.3162277660168381
vn -0.22152097583944513 0.9518322525731205 -0.21199957600127242
usemtl m_3e31ac17-11c3-b2f0-7a61-5d41558c0022
f 29/97/25 41/98/25 40/99/25 27/100/25
f 31/101/26 44/102/26 43/103/26 33/104/26
f 27/105/27 40/106/27 39/107/27 35/108/27
f 38/109/28 42/110/28 41/111/28 29/112/28
f 27/113/29 35/114/29 38/115/29 29/116/29
f 30/117/30 37/118/30 36/119/30 28/120/30
f 35/121/31 39/122/31 44/123/31 31/124/31
f 32/125/32 36/126/32 37/127/32 34/128/32
f 33/129/33 43/130/33 42/131/33 38/132/33
f 33/133/34 38/134/34 35/135/34 31/136/34
f 36/137/35 39/138/35 40/139/35 28/140/35
f 28/141/36 40/142/36 41/143/36 30/144/36
f 30/145/37 41/146/37 42/147/37 37/148/37
f 37/149/38 42/150/38 43/151/38 34/152/38
f 34/153/39 43/154/39 44/155/39 32/156/39
f 32/157/40 44/158/40 39/159/40 36/160/40
o cube
v -0.21714259007146763 0.5694213587342034 0.004586866617705132
v -0.23415569272696546 0.4241000040281135 0.2072991213148998
v -0.2759441566384955 0.285476174362152 -0.20390420860938552
v -0.2929572592939933 0.14015481965606202 -0.0011919539121908324
v -0.09414226642862854 0.5477677292484313 -0.0006132020212416545
v -0.11115536908412636 0.4024463745423413 0.20209905267595302
v -0.15294383299565642 0.2638225448763798 -0.2091042772483323
v -0.16995693565115425 0.11850119017028982 -0.006392022551137619
v -0.15847794535929774 0.534374318206969 0.03577220808109752
v -0.16982001379629627 0.43749341506957573 0.1709137112125606
v -0.22862158036332414 0.15354823069752427 -0.03757736401453002
v -0.2172795119263256 0.2504291338349176 -0.1727188671459931
v -0.14062835295098583 0.599511940387093 0.18673938973766535
v -0.19338877414533773 0.5499407800079401 0.14677453090522946
v -0.26395065402577117 0.20920655876147834 -0.1034147593672793
v -0.22295054614482487 0.20198868226622094 -0.10514811558026156
v -0.18195043826387852 0.19477080577096353 -0.10688147179324382
v -0.11138855838344505 0.5355050270174253 0.14330781847926494
vt 0.5 0.16071562500000003
vt 0.5633625 0.16071562500000003
vt 0.5633625 0.375
vt 0.5 0.33928749999999996
vt 0.34375 0.5479399173464562
vt 0.2803875 0.5836524173464562
vt 0.2803875 0.36936804234645626
vt 0.34375 0.36936804234645626
vt 0.65625 0.34375
vt 0.65625 0.44367481045336354
vt 0.625 0.41162845498303435
vt 0.6480782520424574 0.3665536864181217
vt 0.32234883040518486 0.625
vt 0.28125 0.6181508799129759
vt 0.2846748168919365 0.59375
vt 0.3480367553419289 0.59375
vt 0.78125 0.28125
vt 0.75 0.28125
vt 0.75 0.09375
vt 0.78125 0.09375
vt 0.78125 0.65625
vt 0.8125 0.65625
vt 0.8125 0.84375
vt 0.78125 0.84375
vt 0.34375 0.07355659117389557
vt 0.34375 0.15625
vt 0.3125 0.12540350057869698
vt 0.3281432742608111 0.0630591840736685
vt 0.8125 0.65625
vt 0.78125 0.65625
vt 0.78125 0.46875
vt 0.8125 0.46875
vt 0.03125 0.0980367553419289
vt 0.03125 0.03467481689193652
vt 0.05180095644726376 0.03125
vt 0.058650076534287804 0.07234883040518492
vt 0.78125 0.09375
vt 0.8125 0.09375
vt 0.8125 0.28125
vt 0.78125 0.28125
vt 0.40625 0.07355770463404332
vt 0.40625 0.15625
vt 0.375 0.1254007220094402
vt 0.39064658905107513 0.06305987783301548
vt 0.626725 0.33928749999999996
vt 0.5633625 0.375
vt 0.5633625 0.16071562500000003
vt 0.626725 0.16071562500000003
vt 0.46875 0.0625
vt 0.46875 0.12586193844999238
vt 0.4443491200870241 0.1292867553419289
vt 0.4375 0.0881879249367441
vt 0.49443792493674404 0.125
vt 0.5355367553419289 0.1318491200870241
vt 0.5321119384499924 0.15240007653428778
vt 0.46875 0.15240007653428778
vt 0.21702500000000002 0.36936804234645626
vt 0.2803875 0.36936804234645626
vt 0.2803875 0.5836524173464562
vt 0.21702500000000002 0.5479399173464562
vt 0.21702492601878995 0.5479398756490175
vt 0.2803875 0.5836524173464562
vt 0.2806386429291523 0.625
vt 0.23389467686222887 0.5635835889004418
vn -0.9818019223554123 0.07530933423933063 0.1743372864181556
vn 0.9594264275755249 -0.2664348026195213 0.0922682286746802
vn 0.7494773250894932 -0.6274474681318458 -0.21117152722759483
vn -0.16464438638767798 -0.7950465162417443 -0.5837750106358536
vn 0.6024494575720237 0.3875685236291353 -0.6977429975020221
vn 0.4892034009951685 -0.5797488840250755 0.651591331991487
vn 0.7504903096597836 0.5699015746665104 -0.33462888443676514
vn -0.6024494575720237 -0.3875685236291353 0.6977429975020221
vn -0.16464438638767798 -0.7950465162417443 -0.5837750106358536
vn -0.4892034009951685 0.5797488840250755 -0.651591331991487
vn -0.6249277925969495 0.03642363296183967 0.7798324005847446
vn -0.9594264275755248 0.26643480261952146 -0.09226822867468039
vn -0.16464438638767798 -0.7950465162417443 -0.5837750106358536
vn -0.16464438638767798 -0.7950465162417443 -0.5837750106358536
vn 0.9818019223554124 -0.07530933423933078 -0.17433728641815543
vn 0.9137033006701755 0.16557859626359975 0.3711199358749176
usemtl m_3e31ac17-11c3-b2f0-7a61-5d41558c0022
f 47/161/41 59/162/41 58/163/41 45/164/41
f 49/165/42 62/166/42 61/167/42 51/168/42
f 45/169/43 57/170/43 58/171/43 53/172/43
f 56/173/44 60/174/44 59/175/44 47/176/44
f 45/177/45 53/178/45 56/179/45 47/180/45
f 48/181/46 55/182/46 54/183/46 46/184/46
f 53/185/47 57/186/47 62/187/47 49/188/47
f 50/189/48 54/190/48 55/191/48 52/192/48
f 51/193/49 61/194/49 60/195/49 56/196/49
f 51/197/50 56/198/50 53/199/50 49/200/50
f 54/201/51 57/202/51 58/203/51 46/204/51
f 46/205/52 58/206/52 59/207/52 48/208/52
f 48/209/53 59/210/53 60/211/53 55/212/53
f 55/213/54 60/214/54 61/215/54 52/216/54
f 52/217/55 61/218/55 62/219/55 50/220/55
f 50/221/56 62/222/56 57/223/56 54/224/56
o cube
v -0.2906174806624371 0.26968198188598846 -0.48521242077397486
v -0.2552622294046204 0.4240590384127163 -0.29177578870383125
v -0.2678125630650746 -0.015163325225998059 -0.2620524844999681
v -0.29395747362867747 0.15004054604361594 -0.06601581811035105
v -0.16761715701959806 0.2480283524002162 -0.4904124894129217
v -0.1322619057617814 0.40240540892694404 -0.2969758573427781
v -0.20631240124365513 -0.02599013996888422 -0.26465251881944146
v -0.17095714998583847 0.12838691655784362 -0.07121588674929787
v -0.22322477696471477 0.2845846765642237 -0.45557301641509096
v -0.19965460945950367 0.38750271424870886 -0.32661526170166194
v -0.23834985368356074 0.11348422187960847 -0.10085529110818174
v -0.26192002118877183 0.010566184195123257 -0.22981304582161077
v -0.1959615955224864 0.44565109235410644 -0.4813981272957686
v -0.24470075224824409 0.39806527037554384 -0.4345127769640903
v -0.2296348834956931 0.05841626478973713 -0.1662008465713874
v -0.25013493743616627 0.06202520303736586 -0.16533416846489626
v -0.20913482955521998 0.0548073265421084 -0.16706752467787853
v -0.1627005364863515 0.383629517385029 -0.4379794893900548
vt 0.6301375 0.46875293456985867
vt 0.6935 0.46875293456985867
vt 0.6883625 0.6852435595698587
vt 0.625 0.6498935595698587
vt 0.5 0.5479430388854076
vt 0.4366375 0.5836555388854077
vt 0.4366375 0.3693711638854076
vt 0.5 0.3693711638854076
vt 0.875 0.625
vt 0.875 0.7249248104533634
vt 0.84375 0.6928810322138113
vt 0.8668264846979741 0.6478036864181217
vt 0.75 0.677084375
vt 0.75 0.71875
vt 0.75 0.71875
vt 0.760415625 0.65625
vt 0.7875593750000001 0.90625
vt 0.75 0.90625
vt 0.75 0.71875
vt 0.7615562499999999 0.71875
vt 0.8125 0.71875
vt 0.84375 0.71875
vt 0.84375 0.90625
vt 0.8125 0.90625
vt 0.875 0.5423077046340433
vt 0.875 0.625
vt 0.84375 0.5941525285231543
vt 0.8593925557201687 0.5318098778330155
vt 0.84375 0.71875
vt 0.8125 0.71875
vt 0.8125 0.53125
vt 0.84375 0.53125
vt 0 0.0980367553419289
vt 0 0.03467481689193652
vt 0.020550956447263763 0.03125
vt 0.027400076534287804 0.07234883040518492
vt 0.65625 0
vt 0.6875 0
vt 0.6875 0.1875
vt 0.65625 0.1875
vt 0.375 0.07355770463404332
vt 0.375 0.15625
vt 0.34375 0.12539960860084398
vt 0.3593936691287649 0.06305987783301548
vt 0.753533306531144 0.6529411208330418
vt 0.6883625 0.6852435595698587
vt 0.6935000696397485 0.46875
vt 0.763910927110819 0.47643655976167754
vt 0.4375 0.0625
vt 0.4375 0.13237712429686843
vt 0.41556741575374445 0.13703513340249762
vt 0.40625 0.09511025636686254
vt 0.588187924936744 0.125
vt 0.6292867553419289 0.1318491200870241
vt 0.6258619384499924 0.15240007653428778
vt 0.5625 0.15240007653428778
vt 0.373275 0.3693711638854076
vt 0.4366375 0.3693711638854076
vt 0.4366375 0.5836555388854077
vt 0.373275 0.5479430388854076
vt 0.3732733837787825 0.5479421279475464
vt 0.4366375 0.5836555388854077
vt 0.4368898289709521 0.625
vt 0.3901439663524206 0.5635883565351865
vn -0.9531393230902787 0.16037056341153955 0.2565281917647084
vn 0.9938636449763145 -0.06935434140472296 0.0861686168086247
vn 0.8074033675215008 -0.4427643952221959 0.3899480637706299
vn 0.1083466838273598 0.7672517786334813 -0.6321279176617448
vn 0.42815704042177677 -0.6098880814862659 -0.6668718593540044
vn 0.663495818145415 0.41770772109032483 0.620720193843469
vn 0.5920942621866059 -0.2243263674154113 -0.7740168380390084
vn -0.42815704042177677 0.6098880814862659 0.6668718593540044
vn -0.1083466838273598 -0.7672517786334813 0.6321279176617448
vn -0.663495818145415 -0.41770772109032483 -0.620720193843469
vn -0.5094659829281732 0.8094545133536231 0.2919380123424827
vn -0.994348850921154 -0.08937098751255963 -0.057299120960193184
vn -0.1083466838273598 -0.7672517786334813 0.6321279176617448
vn -0.1083466838273598 -0.7672517786334813 0.6321279176617448
vn 0.9473647049546223 -0.2723897954541308 -0.16823767455210037
vn 0.9154747099029108 0.32253756633637554 -0.24057342710696356
usemtl m_3e31ac17-11c3-b2f0-7a61-5d41558c0022
f 65/225/57 77/226/57 76/227/57 63/228/57
f 67/229/58 80/230/58 79/231/58 69/232/58
f 63/233/59 75/234/59 76/235/59 71/236/59
f 74/237/60 78/238/60 77/239/60 65/240/60
f 63/241/61 71/242/61 74/243/61 65/244/61
f 66/245/62 73/246/62 72/247/62 64/248/62
f 71/249/63 75/250/63 80/251/63 67/252/63
f 68/253/64 72/254/64 73/255/64 70/256/64
f 69/257/65 79/258/65 78/259/65 74/260/65
f 69/261/66 74/262/66 71/263/66 67/264/66
f 72/265/67 75/266/67 76/267/67 64/268/67
f 64/269/68 76/270/68 77/271/68 66/272/68
f 66/273/69 78/274/69 77/275/69 73/276/69
f 73/277/70 78/278/70 79/279/70 70/280/70
f 70/281/71 79/282/71 80/283/71 68/284/71
f 68/285/72 80/286/72 75/287/72 72/288/72